<mxfile host="app.diagrams.net" modified="2024-05-14T20:45:47.341Z" agent="Mozilla/5.0 (X11; Linux x86_64) AppleWebKit/537.36 (KHTML, like Gecko) Chrome/124.0.0.0 Safari/537.36" etag="DGttQUiqXlQ-rvKcoPA7" version="24.4.0" type="device">
  <diagram name="Page-1" id="m3VSI9VaE4As3g3zOqit">
    <mxGraphModel dx="2924" dy="1180" grid="1" gridSize="10" guides="1" tooltips="1" connect="1" arrows="1" fold="1" page="1" pageScale="1" pageWidth="850" pageHeight="1100" math="0" shadow="0">
      <root>
        <mxCell id="0" />
        <mxCell id="1" parent="0" />
        <mxCell id="8HG9WnXO55TLH_VqnwF6-21" value="" style="rounded=0;whiteSpace=wrap;html=1;fillColor=none;" vertex="1" parent="1">
          <mxGeometry x="50" y="300" width="570" height="510" as="geometry" />
        </mxCell>
        <mxCell id="8HG9WnXO55TLH_VqnwF6-7" value="" style="rounded=0;whiteSpace=wrap;html=1;fillColor=none;" vertex="1" parent="1">
          <mxGeometry x="400" y="370" width="180" height="400" as="geometry" />
        </mxCell>
        <mxCell id="8HG9WnXO55TLH_VqnwF6-2" value="Web Server&lt;br&gt;service" style="shape=hexagon;perimeter=hexagonPerimeter2;whiteSpace=wrap;html=1;fixedSize=1;fillColor=#dae8fc;strokeColor=#6c8ebf;" vertex="1" parent="1">
          <mxGeometry x="70" y="540" width="120" height="80" as="geometry" />
        </mxCell>
        <mxCell id="8HG9WnXO55TLH_VqnwF6-3" value="Redis&lt;br&gt;service" style="shape=hexagon;perimeter=hexagonPerimeter2;whiteSpace=wrap;html=1;fixedSize=1;fillColor=#f8cecc;strokeColor=#b85450;" vertex="1" parent="1">
          <mxGeometry x="240" y="540" width="120" height="80" as="geometry" />
        </mxCell>
        <mxCell id="8HG9WnXO55TLH_VqnwF6-4" value="AI Worker&lt;br&gt;service" style="shape=hexagon;perimeter=hexagonPerimeter2;whiteSpace=wrap;html=1;fixedSize=1;fillColor=#e1d5e7;strokeColor=#9673a6;" vertex="1" parent="1">
          <mxGeometry x="430" y="400" width="120" height="80" as="geometry" />
        </mxCell>
        <mxCell id="8HG9WnXO55TLH_VqnwF6-5" value="AI Worker&lt;br&gt;service" style="shape=hexagon;perimeter=hexagonPerimeter2;whiteSpace=wrap;html=1;fixedSize=1;fillColor=#e1d5e7;strokeColor=#9673a6;" vertex="1" parent="1">
          <mxGeometry x="430" y="490" width="120" height="80" as="geometry" />
        </mxCell>
        <mxCell id="8HG9WnXO55TLH_VqnwF6-6" value="AI Worker&lt;br&gt;service" style="shape=hexagon;perimeter=hexagonPerimeter2;whiteSpace=wrap;html=1;fixedSize=1;fillColor=#e1d5e7;strokeColor=#9673a6;" vertex="1" parent="1">
          <mxGeometry x="430" y="660" width="120" height="80" as="geometry" />
        </mxCell>
        <mxCell id="8HG9WnXO55TLH_VqnwF6-8" value="" style="ellipse;whiteSpace=wrap;html=1;aspect=fixed;fillColor=#000000;" vertex="1" parent="1">
          <mxGeometry x="485" y="610" width="10" height="10" as="geometry" />
        </mxCell>
        <mxCell id="8HG9WnXO55TLH_VqnwF6-9" value="" style="ellipse;whiteSpace=wrap;html=1;aspect=fixed;fillColor=#000000;" vertex="1" parent="1">
          <mxGeometry x="485" y="590" width="10" height="10" as="geometry" />
        </mxCell>
        <mxCell id="8HG9WnXO55TLH_VqnwF6-11" value="" style="ellipse;whiteSpace=wrap;html=1;aspect=fixed;fillColor=#000000;" vertex="1" parent="1">
          <mxGeometry x="485" y="630" width="10" height="10" as="geometry" />
        </mxCell>
        <mxCell id="8HG9WnXO55TLH_VqnwF6-12" value="Scalable number of AI workers" style="text;html=1;align=center;verticalAlign=middle;resizable=0;points=[];autosize=1;strokeColor=none;fillColor=none;" vertex="1" parent="1">
          <mxGeometry x="390" y="340" width="190" height="30" as="geometry" />
        </mxCell>
        <mxCell id="8HG9WnXO55TLH_VqnwF6-16" value="" style="endArrow=classic;startArrow=classic;html=1;rounded=0;entryX=0;entryY=0.5;entryDx=0;entryDy=0;exitX=1;exitY=0.25;exitDx=0;exitDy=0;" edge="1" parent="1" source="8HG9WnXO55TLH_VqnwF6-3" target="8HG9WnXO55TLH_VqnwF6-4">
          <mxGeometry width="50" height="50" relative="1" as="geometry">
            <mxPoint x="400" y="750" as="sourcePoint" />
            <mxPoint x="450" y="700" as="targetPoint" />
          </mxGeometry>
        </mxCell>
        <mxCell id="8HG9WnXO55TLH_VqnwF6-17" value="" style="endArrow=classic;startArrow=classic;html=1;rounded=0;entryX=0;entryY=0.5;entryDx=0;entryDy=0;exitX=1;exitY=0.5;exitDx=0;exitDy=0;" edge="1" parent="1" source="8HG9WnXO55TLH_VqnwF6-3" target="8HG9WnXO55TLH_VqnwF6-5">
          <mxGeometry width="50" height="50" relative="1" as="geometry">
            <mxPoint x="361" y="573" as="sourcePoint" />
            <mxPoint x="440" y="450" as="targetPoint" />
          </mxGeometry>
        </mxCell>
        <mxCell id="8HG9WnXO55TLH_VqnwF6-18" value="" style="endArrow=classic;startArrow=classic;html=1;rounded=0;exitX=1;exitY=0.75;exitDx=0;exitDy=0;" edge="1" parent="1" source="8HG9WnXO55TLH_VqnwF6-3">
          <mxGeometry width="50" height="50" relative="1" as="geometry">
            <mxPoint x="371" y="583" as="sourcePoint" />
            <mxPoint x="430" y="700" as="targetPoint" />
          </mxGeometry>
        </mxCell>
        <mxCell id="8HG9WnXO55TLH_VqnwF6-19" value="" style="endArrow=classic;startArrow=classic;html=1;rounded=0;entryX=0;entryY=0.5;entryDx=0;entryDy=0;exitX=1;exitY=0.5;exitDx=0;exitDy=0;" edge="1" parent="1" source="8HG9WnXO55TLH_VqnwF6-2" target="8HG9WnXO55TLH_VqnwF6-3">
          <mxGeometry width="50" height="50" relative="1" as="geometry">
            <mxPoint x="381" y="593" as="sourcePoint" />
            <mxPoint x="460" y="470" as="targetPoint" />
          </mxGeometry>
        </mxCell>
        <mxCell id="8HG9WnXO55TLH_VqnwF6-22" value="QR-AI-Generation system" style="text;html=1;align=center;verticalAlign=middle;resizable=0;points=[];autosize=1;strokeColor=none;fillColor=none;" vertex="1" parent="1">
          <mxGeometry x="50" y="270" width="160" height="30" as="geometry" />
        </mxCell>
        <mxCell id="8HG9WnXO55TLH_VqnwF6-24" value="Client" style="rounded=0;whiteSpace=wrap;html=1;fillColor=#fff2cc;strokeColor=#d6b656;" vertex="1" parent="1">
          <mxGeometry x="-160" y="555" width="90" height="50" as="geometry" />
        </mxCell>
        <mxCell id="8HG9WnXO55TLH_VqnwF6-25" value="Client" style="rounded=0;whiteSpace=wrap;html=1;fillColor=#fff2cc;strokeColor=#d6b656;" vertex="1" parent="1">
          <mxGeometry x="-160" y="470" width="90" height="50" as="geometry" />
        </mxCell>
        <mxCell id="8HG9WnXO55TLH_VqnwF6-23" value="Client" style="rounded=0;whiteSpace=wrap;html=1;fillColor=#fff2cc;strokeColor=#d6b656;" vertex="1" parent="1">
          <mxGeometry x="-160" y="640" width="90" height="50" as="geometry" />
        </mxCell>
        <mxCell id="8HG9WnXO55TLH_VqnwF6-26" value="" style="endArrow=classic;startArrow=classic;html=1;rounded=0;entryX=0;entryY=0.75;entryDx=0;entryDy=0;exitX=1;exitY=0.5;exitDx=0;exitDy=0;" edge="1" parent="1" source="8HG9WnXO55TLH_VqnwF6-23" target="8HG9WnXO55TLH_VqnwF6-2">
          <mxGeometry width="50" height="50" relative="1" as="geometry">
            <mxPoint x="-70" y="690" as="sourcePoint" />
            <mxPoint x="-20" y="640" as="targetPoint" />
          </mxGeometry>
        </mxCell>
        <mxCell id="8HG9WnXO55TLH_VqnwF6-27" value="" style="endArrow=classic;startArrow=classic;html=1;rounded=0;entryX=0;entryY=0.5;entryDx=0;entryDy=0;exitX=1;exitY=0.5;exitDx=0;exitDy=0;" edge="1" parent="1" source="8HG9WnXO55TLH_VqnwF6-24" target="8HG9WnXO55TLH_VqnwF6-2">
          <mxGeometry width="50" height="50" relative="1" as="geometry">
            <mxPoint x="-60" y="675" as="sourcePoint" />
            <mxPoint x="80" y="590" as="targetPoint" />
          </mxGeometry>
        </mxCell>
        <mxCell id="8HG9WnXO55TLH_VqnwF6-28" value="" style="endArrow=classic;startArrow=classic;html=1;rounded=0;entryX=0;entryY=0.25;entryDx=0;entryDy=0;exitX=1;exitY=0.5;exitDx=0;exitDy=0;" edge="1" parent="1" source="8HG9WnXO55TLH_VqnwF6-25" target="8HG9WnXO55TLH_VqnwF6-2">
          <mxGeometry width="50" height="50" relative="1" as="geometry">
            <mxPoint x="-50" y="685" as="sourcePoint" />
            <mxPoint x="90" y="600" as="targetPoint" />
          </mxGeometry>
        </mxCell>
      </root>
    </mxGraphModel>
  </diagram>
</mxfile>
